<svg width="18" height="22" viewBox="0 0 18 22" fill="none" xmlns="http://www.w3.org/2000/svg">
<mask id="mask0_32140_4501" style="mask-type:luminance" maskUnits="userSpaceOnUse" x="8" y="5" width="10" height="12">
<path fill-rule="evenodd" clip-rule="evenodd" d="M8.14844 10.7112L17.8441 16.2358V5.1875L8.14844 10.7112Z" fill="white"/>
</mask>
<g mask="url(#mask0_32140_4501)">
<path fill-rule="evenodd" clip-rule="evenodd" d="M6.60938 17.7509H19.3862V3.66797H6.60938V17.7509Z" fill="#03DAC6"/>
</g>
<mask id="mask1_32140_4501" style="mask-type:luminance" maskUnits="userSpaceOnUse" x="0" y="11" width="18" height="11">
<path fill-rule="evenodd" clip-rule="evenodd" d="M0 16.3434L8.94903 21.5218L17.8989 16.3434L8.94903 11.1641L0 16.3434Z" fill="white"/>
</mask>
<g mask="url(#mask1_32140_4501)">
<path fill-rule="evenodd" clip-rule="evenodd" d="M-1.42188 22.9449H19.3211V9.74219H-1.42188V22.9449Z" fill="#D6F7F3"/>
</g>
<mask id="mask2_32140_4501" style="mask-type:luminance" maskUnits="userSpaceOnUse" x="0" y="5" width="10" height="12">
<path fill-rule="evenodd" clip-rule="evenodd" d="M0.0507812 16.2358L9.74466 10.7121L0.0507812 5.1875V16.2358Z" fill="white"/>
</mask>
<g mask="url(#mask2_32140_4501)">
<path fill-rule="evenodd" clip-rule="evenodd" d="M-1.48828 17.7509H11.2885V3.66797H-1.48828V17.7509Z" fill="#03DAC6"/>
</g>
<mask id="mask3_32140_4501" style="mask-type:luminance" maskUnits="userSpaceOnUse" x="0" y="0" width="18" height="12">
<path fill-rule="evenodd" clip-rule="evenodd" d="M8.9482 0.000895587L0 5.57772L8.9482 11.1545V11.1554V11.1545L17.8981 5.57772L8.9482 0V0.000895587Z" fill="white"/>
</mask>
<g mask="url(#mask3_32140_4501)">
<path fill-rule="evenodd" clip-rule="evenodd" d="M-1.42188 12.6871H19.3203V-1.53125H-1.42188V12.6871Z" fill="#1CB79A"/>
</g>
</svg>
